# xmcd
#
# Track frame offsets:
#	150
#	15761
#	32971
#	53190
#	67547
#	88404
#	110158
#	133092
#	151038
#	175038
#	189533
#	211857
#	237655
#
# Disc length: 3517 seconds
#
# Revision: 1
# Processed by: cddbd v1.5.2PL0 Copyright (c) Steve Scherf et al.
# Submitted via: audiograbber 1.83.01
#
DISCID=a80dbb0d
DTITLE=Cuckoo Savante - Lennonstown Lies
DYEAR=2008
DGENRE=Blues
TTITLE0=Princess (Royal kisser of frogs)
TTITLE1=The House Of Ill Repute
TTITLE2=Freddys Gotta Fly
TTITLE3=Ghostsong
TTITLE4=No Rules
TTITLE5=Barely Hittin' 20
TTITLE6=Sweet Summer Guy
TTITLE7=I C U Leopard
TTITLE8=Red Apple (featuring Mary Coughlan)
TTITLE9=Angry Little Man
TTITLE10=Cassiopeia Draped
TTITLE11=Golden Red November
TTITLE12=Lennonstown Lies
EXTD=
EXTT0=
EXTT1=
EXTT2=
EXTT3=
EXTT4=
EXTT5=
EXTT6=
EXTT7=
EXTT8=
EXTT9=
EXTT10=
EXTT11=
EXTT12=
PLAYORDER=
